<?xml version="1.0" encoding="UTF-8" standalone="no"?>
<svg width="180px" height="180px" viewBox="0 0 180 180" version="1.1" id="svg11" sodipodi:docname="skulls.svg" inkscape:version="1.1.2 (0a00cf5339, 2022-02-04)" xmlns:inkscape="http://www.inkscape.org/namespaces/inkscape" xmlns:sodipodi="http://sodipodi.sourceforge.net/DTD/sodipodi-0.dtd" xmlns="http://www.w3.org/2000/svg" xmlns:svg="http://www.w3.org/2000/svg" xmlns:rdf="http://www.w3.org/1999/02/22-rdf-syntax-ns#" xmlns:cc="http://creativecommons.org/ns#" xmlns:dc="http://purl.org/dc/elements/1.1/">
  <sodipodi:namedview id="namedview13" pagecolor="#505050" bordercolor="#ffffff" borderopacity="1" inkscape:pageshadow="0" inkscape:pageopacity="0" inkscape:pagecheckerboard="1" showgrid="false" inkscape:zoom="3.9944444" inkscape:cx="62.461752" inkscape:cy="130.05563" inkscape:window-width="2460" inkscape:window-height="1563" inkscape:window-x="0" inkscape:window-y="0" inkscape:window-maximized="1" inkscape:current-layer="svg11"/>
  <!-- Generator: Sketch 40.1 (33804) - http://www.bohemiancoding.com/sketch -->
  <title id="title2">skulls</title>
  <desc id="desc4">Created with Sketch.</desc>
  <defs id="defs6"/>
  <path d="m 82.419264,180 h -1.414213 v 0 L 0,98.994951 V 97.580737 96.166524 L 6.1665222,90.000002 0,83.833479 V 82.419266 81.005052 L 81.005051,1.670501e-6 h 1.414213 1.414214 L 90,6.1665239 96.166522,1.670501e-6 h 1.414214 1.414213 L 180,81.005052 v 0 1.414214 1.414213 L 173.83348,90.000002 180,96.166524 v 1.414213 1.414214 L 98.994949,180 H 97.580736 96.166522 L 90,173.83348 83.833478,180 Z m 0,-1.41421 L 1.4142136,97.580737 8.9949494,90.000002 1.4142136,82.419266 82.419264,1.4142152 90,8.994951 97.580736,1.4142152 178.58579,82.419266 l -7.58074,7.580736 7.58074,7.580735 L 97.580736,178.58579 90,171.00505 Z M 175.19731,1.670501e-6 l -25.83261,10e-14 C 150.3977,2.9244649 151.98112,5.5885982 153.99044,7.8679569 152.14468,9.6822087 151,12.207428 151,15.000002 c 0,5.522847 4.47715,10 10,10 1.65685,0 3,1.343145 3,2.999999 v 4.000001 h 1.5 14.5 V 1.670501e-6 h -4.80269 C 175.70782,0.88252177 176,1.9071402 176,3.0000017 c 0,3.3137085 -2.68629,6 -6,6 -3.31371,0 -6,-2.6862915 -6,-6 C 164,1.9071395 164.29218,0.88252048 164.80269,0 l 10.39462,1.670501e-6 H 161.51212 C 161.18046,0.93833845 161,1.9480954 161,3.0000017 v 3 1 c -4.41828,0 -8,3.5817223 -8,8.0000003 0,4.418278 3.58172,8 8,8 2.76142,0 5,2.238576 5,5 v 2 h 4 v -4 h 2 v 4 h 4 v -4 h 2 v 4 h 2 V 1.670501e-6 Z m -15.78325,0 C 159.14433,0.95366526 159,1.9599779 159,3.0000017 v 2.2000362 c -1.24942,0.2536189 -2.41425,0.7401812 -3.44719,1.4123808 C 153.83665,4.6822135 152.45517,2.4477693 151.49941,1.670501e-6 Z M 180,17.000002 h -3 L 179.14286,7.0000017 H 180 Z M 149.3647,180 C 148.4809,177.49792 148,174.80527 148,172 c 0,-13.25483 10.74824,-24 23.99055,-24 H 180 v 32 z m 12.14742,0 c 0.50048,-1.41601 1.34528,-2.66937 2.43378,-3.65951 l -1.34535,-1.47989 v 0 c -1.49884,1.36338 -2.6196,3.13512 -3.18649,5.1394 h -7.91465 C 150.53133,177.5207 150,174.82254 150,172 c 0,-12.15026 9.84059,-22 22.00109,-22 H 180 v 30 z m 13.68519,0 c -1.03743,-1.7934 -2.97646,-3 -5.19731,-3 -2.22085,0 -4.15988,1.2066 -5.19731,3 z M 0,148 H 8.0094505 C 21.259065,148 32,158.74225 32,172 c 0,2.80508 -0.481371,5.49777 -1.365881,8 H 0 Z m 0,2 H 7.9989123 C 20.149777,150 30,159.84707 30,172 c 0,2.82234 -0.530966,5.52054 -1.498639,8 h -7.915426 c -0.566885,-2.00428 -1.687647,-3.77602 -3.186482,-5.1394 l -1.345355,1.47989 c 1.088505,0.99014 1.933298,2.2435 2.433785,3.65951 H 0 Z m 15.197307,30 C 14.159879,178.2066 12.220847,177 10,177 c -2.2208471,0 -4.1598786,1.2066 -5.1973068,3 z M 0,32.000002 H 14.5 16 v -4 c 0,-1.656855 1.343146,-3 3,-3 5.522847,0 10,-4.477153 10,-10 C 29,12.206473 27.854535,9.6804829 26.007671,7.8660973 28.016951,5.5870417 29.600691,2.923513 30.634119,1.6705011e-6 L 0,1.670501e-6 Z m 0,-2 h 2 v -4 h 2 v 4 h 4 v -4 h 2 v 4 h 4 v -2 c 0,-2.761424 2.238576,-5 5,-5 4.418278,0 8,-3.581722 8,-8 0,-4.418278 -3.581722,-8.0000003 -8,-8.0000003 v -1 -3.0000001 C 19,1.9480954 18.819537,0.93833844 18.487883,1.6705007e-6 L 0,1.6705009e-6 Z M 28.501361,1.6705012e-6 C 27.545943,2.4480619 26.164809,4.6828813 24.448683,6.613392 23.415376,5.9406887 22.250023,5.4537792 21,5.2000379 V 3.0000017 C 21,1.9599779 20.855666,0.95366526 20.585935,1.670501e-6 Z M 0,17.000002 H 3 L 0.85714286,7.0000017 H 0 Z M 15.197306,0 C 15.707817,0.88252048 16,1.9071395 16,3.0000017 c 0,3.3137085 -2.686291,6 -6,6 -3.3137085,0 -6,-2.6862915 -6,-6 C 4,1.9071402 4.2921829,0.88252177 4.8026932,1.6705009e-6 l 10.3946188,10e-14 z" id="Combined-Shape" style="fill:#000000;fill-rule:evenodd;stroke:none;stroke-width:1;fill-opacity:0.05" sodipodi:nodetypes="cccccccccccccccccccccccccccccccccccccccccccccccssscccccssscccsccssscccccccccccccsccccccccccssccccccsccssccccscccssccccssccccccccscccccsssccccccccccccccsssccsccccccsccccccccsssccc"/>
  <metadata id="metadata3585">
    <rdf:RDF>
      <cc:Work rdf:about="">
        <dc:title>skulls</dc:title>
      </cc:Work>
    </rdf:RDF>
  </metadata>
  <path d="m 114.99998,97.009635 c 0,-0.16515 -0.0275,-0.323436 -0.0762,-0.472064 V 70.975954 c 0,-5.770069 -12.55736,-8.788929 -24.961885,-8.788929 -12.4045,0 -24.96187,3.01886 -24.96187,8.788929 v 38.048086 c 0,5.76987 12.55757,8.78893 24.96187,8.78893 12.404325,0 24.961885,-3.01886 24.961885,-8.78893 V 97.773109 c 0.05,-0.248926 0.0762,-0.503276 0.0762,-0.763474 z M 68.020785,75.401128 c 4.46506,2.878087 13.24027,4.36355 21.94098,4.36355 4.64774,0 9.16331,-0.415268 13.058645,-1.200494 0.81785,-0.164927 1.3469,-0.961443 1.18215,-1.779293 -0.16475,-0.817851 -0.96102,-1.347513 -1.77907,-1.181967 -3.701985,0.746356 -8.011165,1.140881 -12.461495,1.140881 -6.11649,0 -11.84667,-0.733063 -16.1351,-2.06386 -4.01071,-1.245003 -5.80611,-2.757249 -5.80611,-3.704193 0,-0.946945 1.7954,-2.459192 5.80611,-3.704194 4.28823,-1.330594 10.01841,-2.06366 16.13487,-2.06366 6.11649,0 11.846675,0.733066 16.135105,2.06386 4.0107,1.244802 5.8061,2.757251 5.8061,3.704196 v 12.68706 c 0,0.946741 -1.7954,2.459194 -5.8061,3.703993 -4.28823,1.330795 -10.018615,2.063861 -16.135105,2.063861 -6.11646,0 -11.84664,-0.733066 -16.13507,-2.063861 -4.01071,-1.244799 -5.80611,-2.757049 -5.80611,-3.703993 v -8.261886 z m 38.076075,37.326912 c -4.28823,1.33079 -10.018605,2.06386 -16.135095,2.06386 -6.11646,0 -11.84664,-0.73307 -16.13507,-2.06386 -4.01071,-1.245 -5.80611,-2.75726 -5.80611,-3.7042 V 88.088191 c 4.46503,2.878087 13.24027,4.363549 21.94098,4.363549 8.70074,0 17.475945,-1.485462 21.941005,-4.363549 V 97.3665 c -0.37799,0.942714 -2.19112,2.248939 -5.72979,3.34713 -4.28842,1.33079 -10.018605,2.06386 -16.135085,2.06386 -6.11666,0 -11.84685,-0.73307 -16.13508,-2.06386 -0.7971,-0.2471 -1.64295,0.19817 -1.89025,0.99487 -0.24725,0.79671 0.19825,1.64295 0.99488,1.89026 4.57035,1.4184 10.61856,2.19959 17.03045,2.19959 8.65199,0 17.376865,-1.46914 21.864675,-4.31541 v 7.5411 c 4e-4,0.94674 -1.7948,2.4592 -5.80551,3.704 z" id="path3217" style="stroke-width:0.201391;fill:#000000;fill-opacity:0.05"/>
  <g id="g3219" transform="matrix(0.20139152,0,0,0.20139152,190.55343,57.112271)" style="fill:#000000;fill-opacity:0.05"/>
  <g id="g3221" transform="matrix(0.20139152,0,0,0.20139152,190.55343,57.112271)" style="fill:#000000;fill-opacity:0.05"/>
  <g id="g3223" transform="matrix(0.20139152,0,0,0.20139152,190.55343,57.112271)" style="fill:#000000;fill-opacity:0.05"/>
  <g id="g3225" transform="matrix(0.20139152,0,0,0.20139152,190.55343,57.112271)" style="fill:#000000;fill-opacity:0.05"/>
  <g id="g3227" transform="matrix(0.20139152,0,0,0.20139152,190.55343,57.112271)" style="fill:#000000;fill-opacity:0.05"/>
  <g id="g3229" transform="matrix(0.20139152,0,0,0.20139152,190.55343,57.112271)" style="fill:#000000;fill-opacity:0.05"/>
  <g id="g3231" transform="matrix(0.20139152,0,0,0.20139152,190.55343,57.112271)" style="fill:#000000;fill-opacity:0.05"/>
  <g id="g3233" transform="matrix(0.20139152,0,0,0.20139152,190.55343,57.112271)" style="fill:#000000;fill-opacity:0.05"/>
  <g id="g3235" transform="matrix(0.20139152,0,0,0.20139152,190.55343,57.112271)" style="fill:#000000;fill-opacity:0.05"/>
  <g id="g3237" transform="matrix(0.20139152,0,0,0.20139152,190.55343,57.112271)" style="fill:#000000;fill-opacity:0.05"/>
  <g id="g3239" transform="matrix(0.20139152,0,0,0.20139152,190.55343,57.112271)" style="fill:#000000;fill-opacity:0.05"/>
  <g id="g3241" transform="matrix(0.20139152,0,0,0.20139152,190.55343,57.112271)" style="fill:#000000;fill-opacity:0.05"/>
  <g id="g3243" transform="matrix(0.20139152,0,0,0.20139152,190.55343,57.112271)" style="fill:#000000;fill-opacity:0.05"/>
  <g id="g3245" transform="matrix(0.20139152,0,0,0.20139152,190.55343,57.112271)" style="fill:#000000;fill-opacity:0.05"/>
  <g id="g3247" transform="matrix(0.20139152,0,0,0.20139152,190.55343,57.112271)" style="fill:#000000;fill-opacity:0.05"/>
</svg>