<?xml version="1.0" encoding="UTF-8" standalone="no"?>
<!-- Generator: Adobe Illustrator 22.1.0, SVG Export Plug-In . SVG Version: 6.00 Build 0)  -->
<svg xmlns:dc="http://purl.org/dc/elements/1.1/" xmlns:cc="http://creativecommons.org/ns#" xmlns:rdf="http://www.w3.org/1999/02/22-rdf-syntax-ns#" xmlns:svg="http://www.w3.org/2000/svg" xmlns="http://www.w3.org/2000/svg" xmlns:sodipodi="http://sodipodi.sourceforge.net/DTD/sodipodi-0.dtd" xmlns:inkscape="http://www.inkscape.org/namespaces/inkscape" version="1.1" id="Layer_1" x="0px" y="0px" viewBox="0 0 874.40002 694.29999" xml:space="preserve" sodipodi:docname="noisepage-favico.svg" width="874.40002" height="694.29999" inkscape:version="0.92.4 (5da689c313, 2019-01-14)"><metadata id="metadata242"><rdf:RDF><cc:Work rdf:about=""><dc:format>image/svg+xml</dc:format><dc:type rdf:resource="http://purl.org/dc/dcmitype/StillImage"/><dc:title/></cc:Work></rdf:RDF></metadata><defs id="defs240">
	
	
	
</defs><sodipodi:namedview pagecolor="#ffffff" bordercolor="#666666" borderopacity="1" objecttolerance="10" gridtolerance="10" guidetolerance="10" inkscape:pageopacity="0" inkscape:pageshadow="2" inkscape:window-width="2460" inkscape:window-height="1403" id="namedview238" showgrid="false" inkscape:zoom="0.42374101" inkscape:cx="622.89317" inkscape:cy="-308.57277" inkscape:window-x="0" inkscape:window-y="0" inkscape:window-maximized="1" inkscape:current-layer="Layer_1" fit-margin-top="0" fit-margin-left="0" fit-margin-right="0" fit-margin-bottom="0"/>
<style type="text/css" id="style209">
	.st0{fill:#121B26;}
	.st1{fill:#0075FF;}
</style>
<path style="fill:#c4122e;fill-opacity:1" inkscape:connector-curvature="0" id="path233" d="M 874.4,245.1 C 874.4,109.8 764.7,0 629.3,0 c 0,0 0,0 0,0 H 367.5 c -14.6,0 -27.6,8.2 -33.8,21.5 -6.2,13.2 -4.3,28.5 5.1,39.7 l 121.5,146.5 h 169.1 c 20.6,0 37.3,16.9 37.3,37.6 0,20.6 -16.7,37.3 -37.3,37.3 H 442.6 c -11.1,0 -21.6,-4.9 -28.7,-13.4 L 200.9,13.4 C 193.8,4.9 183.3,0 172.2,0 H 37.3 C 16.7,0 0,16.7 0,37.3 V 657 c 0,20.6 16.7,37.3 37.3,37.3 h 286.5 c 14.7,0 27.7,-8.3 33.9,-21.6 6.2,-13.3 4.1,-28.6 -5.4,-39.8 L 158.9,404.7 c -6.5,-7.6 -9.6,-17.3 -8.7,-27.3 0.8,-10 5.5,-19 13.2,-25.4 6.7,-5.6 15.2,-8.7 24,-8.7 11,0 21.5,4.8 28.6,13.3 L 489.5,681 c 7.1,8.4 17.5,13.3 28.5,13.3 h 97.4 c 20.6,0 37.3,-16.7 37.3,-37.3 V 489.1 c 124.4,-11.7 221.7,-116.5 221.7,-244 z" class="st1"/>
</svg>