<?xml version="1.0" encoding="UTF-8"?><svg id="Layer_1" xmlns="http://www.w3.org/2000/svg" viewBox="0 0 2044.73 713.97"><defs><style>.cls-1{fill:#fff;}.cls-2{fill:#c4122e;}</style></defs><g id="g221"><path id="path211" class="cls-1" d="M1163.31,310.06v-115.15c0-33.5-18.29-58.89-53.2-58.89s-56.42,23.6-56.42,57.1v116.94h-54.15V89.64h52.36v25.39c22.35-21.81,44.71-28.61,72.44-28.61,51.88,0,93.48,38.86,93.48,108v115.63h-54.51Z"/><path id="path213" class="cls-1" d="M1478.66,200.27c0,63.42-43.39,114.68-115,114.68s-114.52-51.38-114.52-114.68,43.87-114.68,114.16-114.68,115.36,51.74,115.36,114.68h0Zm-174.89,0c0,33.5,20.08,64.73,60.01,64.73s60.01-31.23,60.01-64.73-23.31-65.21-60.01-65.21c-39.45,.12-60.01,32.19-60.01,65.21Z"/><path id="path215" class="cls-1" d="M1566.04,0V51.26h-54.15V0h54.15Zm-53.79,89.17v220.89h54.63V89.17h-54.63Z"/><path id="path217" class="cls-1" d="M1754.08,148.53c-15.66-14.78-33.59-19.67-54.63-19.67-25.94,0-40.29,7.99-40.29,21.81s13.03,22.29,41.12,24.08c41.6,2.62,94.44,12.04,94.44,70.45,0,38.86-31.8,72.24-94.92,72.24-34.91,0-69.81-5.84-102.09-39.22l26.9-38.86c15.66,17.4,51.4,30.4,76.03,30.76,20.56,.48,39.81-10.25,39.81-26.34,0-15.14-12.55-21.46-43.87-23.25-41.6-3.1-91.33-18.24-91.33-68.31s52.84-68.66,93.12-68.66c34.43,0,60.37,6.68,85.95,28.97l-30.24,36Z"/><path id="path219" class="cls-1" d="M1871.59,219.46c3.59,27.18,27.26,46.85,65.75,46.85,20.08,0,46.5-7.63,59.05-20.5l34.91,34.33c-23.31,24.08-61.32,35.64-94.92,35.64-76.03,0-121.33-46.85-121.33-117.42,0-66.88,45.66-115.15,117.27-115.15s119.9,45.54,111.41,136.13h-172.14v.12Zm119.9-45.06c-3.59-28.61-25.94-42.8-57.26-42.8-29.53,0-53.67,14.3-61.8,42.8h119.06Z"/></g><path id="path223" class="cls-1" d="M999.54,713.93V401.97h54.63v30.4c16.97-24.56,46.5-35.29,71.61-35.29,68.02,0,113.21,50.42,113.21,115.15s-40.76,115.15-111.41,115.15c-23.31,0-57.74-7.15-73.4-31.23v117.78h-54.63Zm184.81-201.7c0-34.33-23.31-62.46-62.64-62.46s-62.64,28.13-62.64,62.46,25.46,62.46,62.64,62.46,62.64-28.13,62.64-62.46Z"/><path id="path225" class="cls-1" d="M1447.7,401.97h54.15v219.94h-54.15v-32.19c-12.55,25.87-46.98,38.38-71.61,38.86-65.39,.48-113.68-39.7-113.68-116.94s50.57-115.63,115-115.15c29.53,0,57.74,13.83,70.29,35.64v-30.16Zm-130.66,109.79c0,41.96,29.05,66.88,65.39,66.88,85.95,0,85.95-133.39,0-133.39-36.34,0-65.39,24.56-65.39,66.52Z"/><path id="path227" class="cls-1" d="M1703.51,590.31c-7.17,14.78-36.7,26.82-55.95,26.82-68.86,0-111.89-41.96-111.89-110.62s50.09-111.58,111.89-111.58c17.45,0,40.76,6.68,55.95,16.93v-16.93h54.63v193.71c0,78.56-51.04,118.25-110.58,118.25s-102.93-31.71-110.93-81.66l53.2-10.25c3.59,25.03,28.21,41.01,57.26,41.01,27.26,0,55.95-20.98,55.95-65.56h.48v-.12Zm-113.68-83.92c0,38.38,25.94,61.15,57.74,61.15s57.26-23.25,57.26-61.15-25.94-61.99-57.26-61.99-57.74,23.6-57.74,61.99Z"/><path id="path229" class="cls-1" d="M1843.02,531.42c3.59,27.18,27.26,46.85,65.75,46.85,20.08,0,46.5-7.63,59.05-20.5l34.91,34.33c-23.31,24.08-61.32,35.64-94.92,35.64-76.03,0-121.33-46.85-121.33-117.42,0-66.88,45.66-115.15,117.27-115.15s119.9,45.54,111.41,136.13h-172.14v.12Zm119.9-45.06c-3.59-28.61-25.94-42.8-57.26-42.8-29.53,0-53.67,14.3-61.8,42.8h119.06Z"/><path id="path233" class="cls-2" d="M874.4,264.77c0-135.3-109.7-245.1-245.1-245.1H367.5c-14.6,0-27.6,8.2-33.8,21.5-6.2,13.2-4.3,28.5,5.1,39.7l121.5,146.5h169.1c20.6,0,37.3,16.9,37.3,37.6s-16.7,37.3-37.3,37.3h-186.8c-11.1,0-21.6-4.9-28.7-13.4L200.9,33.07c-7.1-8.5-17.6-13.4-28.7-13.4H37.3C16.7,19.67,0,36.37,0,56.97V676.67c0,20.6,16.7,37.3,37.3,37.3H323.8c14.7,0,27.7-8.3,33.9-21.6,6.2-13.3,4.1-28.6-5.4-39.8l-193.4-228.2c-6.5-7.6-9.6-17.3-8.7-27.3,.8-10,5.5-19,13.2-25.4,6.7-5.6,15.2-8.7,24-8.7,11,0,21.5,4.8,28.6,13.3l273.5,324.4c7.1,8.4,17.5,13.3,28.5,13.3h97.4c20.6,0,37.3-16.7,37.3-37.3v-167.9c124.4-11.7,221.7-116.5,221.7-244Z"/></svg>